#usda 1.0
(
    customLayerData = {
        dictionary cameraSettings = {
            dictionary Front = {
                double3 position = (0, 0, 500)
                double radius = 5
            }
            dictionary Perspective = {
                double3 position = (5, 5, 5)
                double3 target = (-3.978038343177559e-8, 7.956076863990802e-8, -3.978038254359717e-8)
            }
            dictionary Right = {
                double3 position = (-500, 0, 0)
                double radius = 5
            }
            dictionary Top = {
                double3 position = (0, 500, 0)
                double radius = 5
            }
            string boundCamera = "/OmniverseKit_Persp"
        }
        dictionary omni_layer = {
            string authoring_layer = "./SICK_tim781.usda"
        }
        dictionary renderSettings = {
        }
    }
    defaultPrim = "SICK_TiM781"
    doc = "Generated from SICK_tim781.json"
)

def OmniLidar "SICK_TiM781" (
    prepend apiSchemas = ["OmniSensorGenericLidarCoreAPI"]
)
{
    float omni:sensor:Core:avgPowerW = 0.001
    float omni:sensor:Core:azimuthErrorMean = 0
    float omni:sensor:Core:azimuthErrorStd = 0
    float omni:sensor:Core:elevationErrorMean = 0
    float omni:sensor:Core:elevationErrorStd = 0
    float[] omni:sensor:Core:emitterState:s001:azimuthDeg = [45, 44.666668, 44.333332, 44, 43.666668, 43.333332, 43, 42.666668, 42.333332, 42, 41.666668, 41.333332, 41, 40.666668, 40.333332, 40, 39.666668, 39.333332, 39, 38.666668, 38.333332, 38, 37.666668, 37.333332, 37, 36.666668, 36.333332, 36, 35.666668, 35.333332, 35, 34.666668, 34.333332, 34, 33.666668, 33.333332, 33, 32.666668, 32.333332, 32, 31.666666, 31.333334, 31, 30.666666, 30.333334, 30, 29.666666, 29.333334, 29, 28.666666, 28.333334, 28, 27.666666, 27.333334, 27, 26.666666, 26.333334, 26, 25.666666, 25.333334, 25, 24.666666, 24.333334, 24, 23.666666, 23.333334, 23, 22.666666, 22.333334, 22, 21.666666, 21.333334, 21, 20.666666, 20.333334, 20, 19.666666, 19.333334, 19, 18.666666, 18.333334, 18, 17.666666, 17.333334, 17, 16.666666, 16.333334, 16, 15.666667, 15.333333, 15, 14.666667, 14.333333, 14, 13.666667, 13.333333, 13, 12.666667, 12.333333, 12, 11.666667, 11.333333, 11, 10.666667, 10.333333, 10, 9.666667, 9.333333, 9, 8.666667, 8.333333, 8, 7.6666665, 7.3333335, 7, 6.6666665, 6.3333335, 6, 5.6666665, 5.3333335, 5, 4.6666665, 4.3333335, 4, 3.6666667, 3.3333333, 3, 2.6666667, 2.3333333, 2, 1.6666666, 1.3333334, 1, 0.6666667, 0.33333334, 0, 359.66666, 359.33334, 359, 358.66666, 358.33334, 358, 357.66666, 357.33334, 357, 356.66666, 356.33334, 356, 355.66666, 355.33334, 355, 354.66666, 354.33334, 354, 353.66666, 353.33334, 353, 352.66666, 352.33334, 352, 351.66666, 351.33334, 351, 350.66666, 350.33334, 350, 349.66666, 349.33334, 349, 348.66666, 348.33334, 348, 347.66666, 347.33334, 347, 346.66666, 346.33334, 346, 345.66666, 345.33334, 345, 344.66666, 344.33334, 344, 343.66666, 343.33334, 343, 342.66666, 342.33334, 342, 341.66666, 341.33334, 341, 340.66666, 340.33334, 340, 339.66666, 339.33334, 339, 338.66666, 338.33334, 338, 337.66666, 337.33334, 337, 336.66666, 336.33334, 336, 335.66666, 335.33334, 335, 334.66666, 334.33334, 334, 333.66666, 333.33334, 333, 332.66666, 332.33334, 332, 331.66666, 331.33334, 331, 330.66666, 330.33334, 330, 329.66666, 329.33334, 329, 328.66666, 328.33334, 328, 327.66666, 327.33334, 327, 326.66666, 326.33334, 326, 325.66666, 325.33334, 325, 324.66666, 324.33334, 324, 323.66666, 323.33334, 323, 322.66666, 322.33334, 322, 321.66666, 321.33334, 321, 320.66666, 320.33334, 320, 319.66666, 319.33334, 319, 318.66666, 318.33334, 318, 317.66666, 317.33334, 317, 316.66666, 316.33334, 316, 315.66666, 315.33334, 315, 314.66666, 314.33334, 314, 313.66666, 313.33334, 313, 312.66666, 312.33334, 312, 311.66666, 311.33334, 311, 310.66666, 310.33334, 310, 309.66666, 309.33334, 309, 308.66666, 308.33334, 308, 307.66666, 307.33334, 307, 306.66666, 306.33334, 306, 305.66666, 305.33334, 305, 304.66666, 304.33334, 304, 303.66666, 303.33334, 303, 302.66666, 302.33334, 302, 301.66666, 301.33334, 301, 300.66666, 300.33334, 300, 299.66666, 299.33334, 299, 298.66666, 298.33334, 298, 297.66666, 297.33334, 297, 296.66666, 296.33334, 296, 295.66666, 295.33334, 295, 294.66666, 294.33334, 294, 293.66666, 293.33334, 293, 292.66666, 292.33334, 292, 291.66666, 291.33334, 291, 290.66666, 290.33334, 290, 289.66666, 289.33334, 289, 288.66666, 288.33334, 288, 287.66666, 287.33334, 287, 286.66666, 286.33334, 286, 285.66666, 285.33334, 285, 284.66666, 284.33334, 284, 283.66666, 283.33334, 283, 282.66666, 282.33334, 282, 281.66666, 281.33334, 281, 280.66666, 280.33334, 280, 279.66666, 279.33334, 279, 278.66666, 278.33334, 278, 277.66666, 277.33334, 277, 276.66666, 276.33334, 276, 275.66666, 275.33334, 275, 274.66666, 274.33334, 274, 273.66666, 273.33334, 273, 272.66666, 272.33334, 272, 271.66666, 271.33334, 271, 270.66666, 270.33334, 270, 269.66666, 269.33334, 269, 268.66666, 268.33334, 268, 267.66666, 267.33334, 267, 266.66666, 266.33334, 266, 265.66666, 265.33334, 265, 264.66666, 264.33334, 264, 263.66666, 263.33334, 263, 262.66666, 262.33334, 262, 261.66666, 261.33334, 261, 260.66666, 260.33334, 260, 259.66666, 259.33334, 259, 258.66666, 258.33334, 258, 257.66666, 257.33334, 257, 256.66666, 256.33334, 256, 255.66667, 255.33333, 255, 254.66667, 254.33333, 254, 253.66667, 253.33333, 253, 252.66667, 252.33333, 252, 251.66667, 251.33333, 251, 250.66667, 250.33333, 250, 249.66667, 249.33333, 249, 248.66667, 248.33333, 248, 247.66667, 247.33333, 247, 246.66667, 246.33333, 246, 245.66667, 245.33333, 245, 244.66667, 244.33333, 244, 243.66667, 243.33333, 243, 242.66667, 242.33333, 242, 241.66667, 241.33333, 241, 240.66667, 240.33333, 240, 239.66667, 239.33333, 239, 238.66667, 238.33333, 238, 237.66667, 237.33333, 237, 236.66667, 236.33333, 236, 235.66667, 235.33333, 235, 234.66667, 234.33333, 234, 233.66667, 233.33333, 233, 232.66667, 232.33333, 232, 231.66667, 231.33333, 231, 230.66667, 230.33333, 230, 229.66667, 229.33333, 229, 228.66667, 228.33333, 228, 227.66667, 227.33333, 227, 226.66667, 226.33333, 226, 225.66667, 225.33333, 225, 224.66667, 224.33333, 224, 223.66667, 223.33333, 223, 222.66667, 222.33333, 222, 221.66667, 221.33333, 221, 220.66667, 220.33333, 220, 219.66667, 219.33333, 219, 218.66667, 218.33333, 218, 217.66667, 217.33333, 217, 216.66667, 216.33333, 216, 215.66667, 215.33333, 215, 214.66667, 214.33333, 214, 213.66667, 213.33333, 213, 212.66667, 212.33333, 212, 211.66667, 211.33333, 211, 210.66667, 210.33333, 210, 209.66667, 209.33333, 209, 208.66667, 208.33333, 208, 207.66667, 207.33333, 207, 206.66667, 206.33333, 206, 205.66667, 205.33333, 205, 204.66667, 204.33333, 204, 203.66667, 203.33333, 203, 202.66667, 202.33333, 202, 201.66667, 201.33333, 201, 200.66667, 200.33333, 200, 199.66667, 199.33333, 199, 198.66667, 198.33333, 198, 197.66667, 197.33333, 197, 196.66667, 196.33333, 196, 195.66667, 195.33333, 195, 194.66667, 194.33333, 194, 193.66667, 193.33333, 193, 192.66667, 192.33333, 192, 191.66667, 191.33333, 191, 190.66667, 190.33333, 190, 189.66667, 189.33333, 189, 188.66667, 188.33333, 188, 187.66667, 187.33333, 187, 186.66667, 186.33333, 186, 185.66667, 185.33333, 185, 184.66667, 184.33333, 184, 183.66667, 183.33333, 183, 182.66667, 182.33333, 182, 181.66667, 181.33333, 181, 180.66667, 180.33333, 180, 179.66667, 179.33333, 179, 178.66667, 178.33333, 178, 177.66667, 177.33333, 177, 176.66667, 176.33333, 176, 175.66667, 175.33333, 175, 174.66667, 174.33333, 174, 173.66667, 173.33333, 173, 172.66667, 172.33333, 172, 171.66667, 171.33333, 171, 170.66667, 170.33333, 170, 169.66667, 169.33333, 169, 168.66667, 168.33333, 168, 167.66667, 167.33333, 167, 166.66667, 166.33333, 166, 165.66667, 165.33333, 165, 164.66667, 164.33333, 164, 163.66667, 163.33333, 163, 162.66667, 162.33333, 162, 161.66667, 161.33333, 161, 160.66667, 160.33333, 160, 159.66667, 159.33333, 159, 158.66667, 158.33333, 158, 157.66667, 157.33333, 157, 156.66667, 156.33333, 156, 155.66667, 155.33333, 155, 154.66667, 154.33333, 154, 153.66667, 153.33333, 153, 152.66667, 152.33333, 152, 151.66667, 151.33333, 151, 150.66667, 150.33333, 150, 149.66667, 149.33333, 149, 148.66667, 148.33333, 148, 147.66667, 147.33333, 147, 146.66667, 146.33333, 146, 145.66667, 145.33333, 145, 144.66667, 144.33333, 144, 143.66667, 143.33333, 143, 142.66667, 142.33333, 142, 141.66667, 141.33333, 141, 140.66667, 140.33333, 140, 139.66667, 139.33333, 139, 138.66667, 138.33333, 138, 137.66667, 137.33333, 137, 136.66667, 136.33333, 136, 135.66667, 135.33333, 135]
    uint[] omni:sensor:Core:emitterState:s001:channelId = [1, 2, 3, 4, 5, 6, 7, 8, 9, 10, 11, 12, 13, 14, 15, 16, 17, 18, 19, 20, 21, 22, 23, 24, 25, 26, 27, 28, 29, 30, 31, 32, 33, 34, 35, 36, 37, 38, 39, 40, 41, 42, 43, 44, 45, 46, 47, 48, 49, 50, 51, 52, 53, 54, 55, 56, 57, 58, 59, 60, 61, 62, 63, 64, 65, 66, 67, 68, 69, 70, 71, 72, 73, 74, 75, 76, 77, 78, 79, 80, 81, 82, 83, 84, 85, 86, 87, 88, 89, 90, 91, 92, 93, 94, 95, 96, 97, 98, 99, 100, 101, 102, 103, 104, 105, 106, 107, 108, 109, 110, 111, 112, 113, 114, 115, 116, 117, 118, 119, 120, 121, 122, 123, 124, 125, 126, 127, 128, 129, 130, 131, 132, 133, 134, 135, 136, 137, 138, 139, 140, 141, 142, 143, 144, 145, 146, 147, 148, 149, 150, 151, 152, 153, 154, 155, 156, 157, 158, 159, 160, 161, 162, 163, 164, 165, 166, 167, 168, 169, 170, 171, 172, 173, 174, 175, 176, 177, 178, 179, 180, 181, 182, 183, 184, 185, 186, 187, 188, 189, 190, 191, 192, 193, 194, 195, 196, 197, 198, 199, 200, 201, 202, 203, 204, 205, 206, 207, 208, 209, 210, 211, 212, 213, 214, 215, 216, 217, 218, 219, 220, 221, 222, 223, 224, 225, 226, 227, 228, 229, 230, 231, 232, 233, 234, 235, 236, 237, 238, 239, 240, 241, 242, 243, 244, 245, 246, 247, 248, 249, 250, 251, 252, 253, 254, 255, 256, 257, 258, 259, 260, 261, 262, 263, 264, 265, 266, 267, 268, 269, 270, 271, 272, 273, 274, 275, 276, 277, 278, 279, 280, 281, 282, 283, 284, 285, 286, 287, 288, 289, 290, 291, 292, 293, 294, 295, 296, 297, 298, 299, 300, 301, 302, 303, 304, 305, 306, 307, 308, 309, 310, 311, 312, 313, 314, 315, 316, 317, 318, 319, 320, 321, 322, 323, 324, 325, 326, 327, 328, 329, 330, 331, 332, 333, 334, 335, 336, 337, 338, 339, 340, 341, 342, 343, 344, 345, 346, 347, 348, 349, 350, 351, 352, 353, 354, 355, 356, 357, 358, 359, 360, 361, 362, 363, 364, 365, 366, 367, 368, 369, 370, 371, 372, 373, 374, 375, 376, 377, 378, 379, 380, 381, 382, 383, 384, 385, 386, 387, 388, 389, 390, 391, 392, 393, 394, 395, 396, 397, 398, 399, 400, 401, 402, 403, 404, 405, 406, 407, 408, 409, 410, 411, 412, 413, 414, 415, 416, 417, 418, 419, 420, 421, 422, 423, 424, 425, 426, 427, 428, 429, 430, 431, 432, 433, 434, 435, 436, 437, 438, 439, 440, 441, 442, 443, 444, 445, 446, 447, 448, 449, 450, 451, 452, 453, 454, 455, 456, 457, 458, 459, 460, 461, 462, 463, 464, 465, 466, 467, 468, 469, 470, 471, 472, 473, 474, 475, 476, 477, 478, 479, 480, 481, 482, 483, 484, 485, 486, 487, 488, 489, 490, 491, 492, 493, 494, 495, 496, 497, 498, 499, 500, 501, 502, 503, 504, 505, 506, 507, 508, 509, 510, 511, 512, 513, 514, 515, 516, 517, 518, 519, 520, 521, 522, 523, 524, 525, 526, 527, 528, 529, 530, 531, 532, 533, 534, 535, 536, 537, 538, 539, 540, 541, 542, 543, 544, 545, 546, 547, 548, 549, 550, 551, 552, 553, 554, 555, 556, 557, 558, 559, 560, 561, 562, 563, 564, 565, 566, 567, 568, 569, 570, 571, 572, 573, 574, 575, 576, 577, 578, 579, 580, 581, 582, 583, 584, 585, 586, 587, 588, 589, 590, 591, 592, 593, 594, 595, 596, 597, 598, 599, 600, 601, 602, 603, 604, 605, 606, 607, 608, 609, 610, 611, 612, 613, 614, 615, 616, 617, 618, 619, 620, 621, 622, 623, 624, 625, 626, 627, 628, 629, 630, 631, 632, 633, 634, 635, 636, 637, 638, 639, 640, 641, 642, 643, 644, 645, 646, 647, 648, 649, 650, 651, 652, 653, 654, 655, 656, 657, 658, 659, 660, 661, 662, 663, 664, 665, 666, 667, 668, 669, 670, 671, 672, 673, 674, 675, 676, 677, 678, 679, 680, 681, 682, 683, 684, 685, 686, 687, 688, 689, 690, 691, 692, 693, 694, 695, 696, 697, 698, 699, 700, 701, 702, 703, 704, 705, 706, 707, 708, 709, 710, 711, 712, 713, 714, 715, 716, 717, 718, 719, 720, 721, 722, 723, 724, 725, 726, 727, 728, 729, 730, 731, 732, 733, 734, 735, 736, 737, 738, 739, 740, 741, 742, 743, 744, 745, 746, 747, 748, 749, 750, 751, 752, 753, 754, 755, 756, 757, 758, 759, 760, 761, 762, 763, 764, 765, 766, 767, 768, 769, 770, 771, 772, 773, 774, 775, 776, 777, 778, 779, 780, 781, 782, 783, 784, 785, 786, 787, 788, 789, 790, 791, 792, 793, 794, 795, 796, 797, 798, 799, 800, 801, 802, 803, 804, 805, 806, 807, 808, 809, 810, 811]
    float[] omni:sensor:Core:emitterState:s001:distanceCorrectionM = [0, 0, 0, 0, 0, 0, 0, 0, 0, 0, 0, 0, 0, 0, 0, 0, 0, 0, 0, 0, 0, 0, 0, 0, 0, 0, 0, 0, 0, 0, 0, 0, 0, 0, 0, 0, 0, 0, 0, 0, 0, 0, 0, 0, 0, 0, 0, 0, 0, 0, 0, 0, 0, 0, 0, 0, 0, 0, 0, 0, 0, 0, 0, 0, 0, 0, 0, 0, 0, 0, 0, 0, 0, 0, 0, 0, 0, 0, 0, 0, 0, 0, 0, 0, 0, 0, 0, 0, 0, 0, 0, 0, 0, 0, 0, 0, 0, 0, 0, 0, 0, 0, 0, 0, 0, 0, 0, 0, 0, 0, 0, 0, 0, 0, 0, 0, 0, 0, 0, 0, 0, 0, 0, 0, 0, 0, 0, 0, 0, 0, 0, 0, 0, 0, 0, 0, 0, 0, 0, 0, 0, 0, 0, 0, 0, 0, 0, 0, 0, 0, 0, 0, 0, 0, 0, 0, 0, 0, 0, 0, 0, 0, 0, 0, 0, 0, 0, 0, 0, 0, 0, 0, 0, 0, 0, 0, 0, 0, 0, 0, 0, 0, 0, 0, 0, 0, 0, 0, 0, 0, 0, 0, 0, 0, 0, 0, 0, 0, 0, 0, 0, 0, 0, 0, 0, 0, 0, 0, 0, 0, 0, 0, 0, 0, 0, 0, 0, 0, 0, 0, 0, 0, 0, 0, 0, 0, 0, 0, 0, 0, 0, 0, 0, 0, 0, 0, 0, 0, 0, 0, 0, 0, 0, 0, 0, 0, 0, 0, 0, 0, 0, 0, 0, 0, 0, 0, 0, 0, 0, 0, 0, 0, 0, 0, 0, 0, 0, 0, 0, 0, 0, 0, 0, 0, 0, 0, 0, 0, 0, 0, 0, 0, 0, 0, 0, 0, 0, 0, 0, 0, 0, 0, 0, 0, 0, 0, 0, 0, 0, 0, 0, 0, 0, 0, 0, 0, 0, 0, 0, 0, 0, 0, 0, 0, 0, 0, 0, 0, 0, 0, 0, 0, 0, 0, 0, 0, 0, 0, 0, 0, 0, 0, 0, 0, 0, 0, 0, 0, 0, 0, 0, 0, 0, 0, 0, 0, 0, 0, 0, 0, 0, 0, 0, 0, 0, 0, 0, 0, 0, 0, 0, 0, 0, 0, 0, 0, 0, 0, 0, 0, 0, 0, 0, 0, 0, 0, 0, 0, 0, 0, 0, 0, 0, 0, 0, 0, 0, 0, 0, 0, 0, 0, 0, 0, 0, 0, 0, 0, 0, 0, 0, 0, 0, 0, 0, 0, 0, 0, 0, 0, 0, 0, 0, 0, 0, 0, 0, 0, 0, 0, 0, 0, 0, 0, 0, 0, 0, 0, 0, 0, 0, 0, 0, 0, 0, 0, 0, 0, 0, 0, 0, 0, 0, 0, 0, 0, 0, 0, 0, 0, 0, 0, 0, 0, 0, 0, 0, 0, 0, 0, 0, 0, 0, 0, 0, 0, 0, 0, 0, 0, 0, 0, 0, 0, 0, 0, 0, 0, 0, 0, 0, 0, 0, 0, 0, 0, 0, 0, 0, 0, 0, 0, 0, 0, 0, 0, 0, 0, 0, 0, 0, 0, 0, 0, 0, 0, 0, 0, 0, 0, 0, 0, 0, 0, 0, 0, 0, 0, 0, 0, 0, 0, 0, 0, 0, 0, 0, 0, 0, 0, 0, 0, 0, 0, 0, 0, 0, 0, 0, 0, 0, 0, 0, 0, 0, 0, 0, 0, 0, 0, 0, 0, 0, 0, 0, 0, 0, 0, 0, 0, 0, 0, 0, 0, 0, 0, 0, 0, 0, 0, 0, 0, 0, 0, 0, 0, 0, 0, 0, 0, 0, 0, 0, 0, 0, 0, 0, 0, 0, 0, 0, 0, 0, 0, 0, 0, 0, 0, 0, 0, 0, 0, 0, 0, 0, 0, 0, 0, 0, 0, 0, 0, 0, 0, 0, 0, 0, 0, 0, 0, 0, 0, 0, 0, 0, 0, 0, 0, 0, 0, 0, 0, 0, 0, 0, 0, 0, 0, 0, 0, 0, 0, 0, 0, 0, 0, 0, 0, 0, 0, 0, 0, 0, 0, 0, 0, 0, 0, 0, 0, 0, 0, 0, 0, 0, 0, 0, 0, 0, 0, 0, 0, 0, 0, 0, 0, 0, 0, 0, 0, 0, 0, 0, 0, 0, 0, 0, 0, 0, 0, 0, 0, 0, 0, 0, 0, 0, 0, 0, 0, 0, 0, 0, 0, 0, 0, 0, 0, 0, 0, 0, 0, 0, 0, 0, 0, 0, 0, 0, 0, 0, 0, 0, 0, 0, 0, 0, 0, 0, 0, 0, 0, 0, 0, 0, 0, 0, 0, 0, 0, 0, 0, 0, 0, 0, 0, 0, 0, 0, 0, 0, 0, 0, 0, 0, 0, 0, 0, 0, 0, 0, 0, 0, 0, 0, 0, 0, 0, 0, 0, 0, 0, 0, 0, 0, 0, 0, 0, 0, 0, 0, 0, 0, 0, 0, 0, 0, 0, 0, 0, 0, 0, 0, 0, 0, 0, 0, 0, 0, 0, 0, 0, 0, 0, 0, 0, 0, 0, 0, 0, 0]
    float[] omni:sensor:Core:emitterState:s001:elevationDeg = [0, 0, 0, 0, 0, 0, 0, 0, 0, 0, 0, 0, 0, 0, 0, 0, 0, 0, 0, 0, 0, 0, 0, 0, 0, 0, 0, 0, 0, 0, 0, 0, 0, 0, 0, 0, 0, 0, 0, 0, 0, 0, 0, 0, 0, 0, 0, 0, 0, 0, 0, 0, 0, 0, 0, 0, 0, 0, 0, 0, 0, 0, 0, 0, 0, 0, 0, 0, 0, 0, 0, 0, 0, 0, 0, 0, 0, 0, 0, 0, 0, 0, 0, 0, 0, 0, 0, 0, 0, 0, 0, 0, 0, 0, 0, 0, 0, 0, 0, 0, 0, 0, 0, 0, 0, 0, 0, 0, 0, 0, 0, 0, 0, 0, 0, 0, 0, 0, 0, 0, 0, 0, 0, 0, 0, 0, 0, 0, 0, 0, 0, 0, 0, 0, 0, 0, 0, 0, 0, 0, 0, 0, 0, 0, 0, 0, 0, 0, 0, 0, 0, 0, 0, 0, 0, 0, 0, 0, 0, 0, 0, 0, 0, 0, 0, 0, 0, 0, 0, 0, 0, 0, 0, 0, 0, 0, 0, 0, 0, 0, 0, 0, 0, 0, 0, 0, 0, 0, 0, 0, 0, 0, 0, 0, 0, 0, 0, 0, 0, 0, 0, 0, 0, 0, 0, 0, 0, 0, 0, 0, 0, 0, 0, 0, 0, 0, 0, 0, 0, 0, 0, 0, 0, 0, 0, 0, 0, 0, 0, 0, 0, 0, 0, 0, 0, 0, 0, 0, 0, 0, 0, 0, 0, 0, 0, 0, 0, 0, 0, 0, 0, 0, 0, 0, 0, 0, 0, 0, 0, 0, 0, 0, 0, 0, 0, 0, 0, 0, 0, 0, 0, 0, 0, 0, 0, 0, 0, 0, 0, 0, 0, 0, 0, 0, 0, 0, 0, 0, 0, 0, 0, 0, 0, 0, 0, 0, 0, 0, 0, 0, 0, 0, 0, 0, 0, 0, 0, 0, 0, 0, 0, 0, 0, 0, 0, 0, 0, 0, 0, 0, 0, 0, 0, 0, 0, 0, 0, 0, 0, 0, 0, 0, 0, 0, 0, 0, 0, 0, 0, 0, 0, 0, 0, 0, 0, 0, 0, 0, 0, 0, 0, 0, 0, 0, 0, 0, 0, 0, 0, 0, 0, 0, 0, 0, 0, 0, 0, 0, 0, 0, 0, 0, 0, 0, 0, 0, 0, 0, 0, 0, 0, 0, 0, 0, 0, 0, 0, 0, 0, 0, 0, 0, 0, 0, 0, 0, 0, 0, 0, 0, 0, 0, 0, 0, 0, 0, 0, 0, 0, 0, 0, 0, 0, 0, 0, 0, 0, 0, 0, 0, 0, 0, 0, 0, 0, 0, 0, 0, 0, 0, 0, 0, 0, 0, 0, 0, 0, 0, 0, 0, 0, 0, 0, 0, 0, 0, 0, 0, 0, 0, 0, 0, 0, 0, 0, 0, 0, 0, 0, 0, 0, 0, 0, 0, 0, 0, 0, 0, 0, 0, 0, 0, 0, 0, 0, 0, 0, 0, 0, 0, 0, 0, 0, 0, 0, 0, 0, 0, 0, 0, 0, 0, 0, 0, 0, 0, 0, 0, 0, 0, 0, 0, 0, 0, 0, 0, 0, 0, 0, 0, 0, 0, 0, 0, 0, 0, 0, 0, 0, 0, 0, 0, 0, 0, 0, 0, 0, 0, 0, 0, 0, 0, 0, 0, 0, 0, 0, 0, 0, 0, 0, 0, 0, 0, 0, 0, 0, 0, 0, 0, 0, 0, 0, 0, 0, 0, 0, 0, 0, 0, 0, 0, 0, 0, 0, 0, 0, 0, 0, 0, 0, 0, 0, 0, 0, 0, 0, 0, 0, 0, 0, 0, 0, 0, 0, 0, 0, 0, 0, 0, 0, 0, 0, 0, 0, 0, 0, 0, 0, 0, 0, 0, 0, 0, 0, 0, 0, 0, 0, 0, 0, 0, 0, 0, 0, 0, 0, 0, 0, 0, 0, 0, 0, 0, 0, 0, 0, 0, 0, 0, 0, 0, 0, 0, 0, 0, 0, 0, 0, 0, 0, 0, 0, 0, 0, 0, 0, 0, 0, 0, 0, 0, 0, 0, 0, 0, 0, 0, 0, 0, 0, 0, 0, 0, 0, 0, 0, 0, 0, 0, 0, 0, 0, 0, 0, 0, 0, 0, 0, 0, 0, 0, 0, 0, 0, 0, 0, 0, 0, 0, 0, 0, 0, 0, 0, 0, 0, 0, 0, 0, 0, 0, 0, 0, 0, 0, 0, 0, 0, 0, 0, 0, 0, 0, 0, 0, 0, 0, 0, 0, 0, 0, 0, 0, 0, 0, 0, 0, 0, 0, 0, 0, 0, 0, 0, 0, 0, 0, 0, 0, 0, 0, 0, 0, 0, 0, 0, 0, 0, 0, 0, 0, 0, 0, 0, 0, 0, 0, 0, 0, 0, 0, 0, 0, 0, 0, 0, 0, 0, 0, 0, 0, 0, 0, 0, 0, 0, 0, 0, 0, 0, 0, 0, 0, 0, 0, 0, 0, 0, 0, 0, 0, 0, 0, 0, 0, 0, 0, 0, 0, 0, 0, 0, 0, 0, 0, 0, 0, 0, 0, 0]
    uint[] omni:sensor:Core:emitterState:s001:fireTimeNs = [0, 82203, 164406, 246609, 328812, 411015, 493218, 575421, 657624, 739827, 822030, 904233, 986436, 1068639, 1150842, 1233045, 1315248, 1397451, 1479654, 1561857, 1644060, 1726263, 1808466, 1890669, 1972872, 2055076, 2137279, 2219482, 2301685, 2383888, 2466091, 2548294, 2630497, 2712700, 2794903, 2877106, 2959309, 3041512, 3123715, 3205918, 3288121, 3370324, 3452527, 3534730, 3616933, 3699136, 3781339, 3863542, 3945745, 4027949, 4110152, 4192355, 4274558, 4356761, 4438964, 4521167, 4603370, 4685573, 4767776, 4849979, 4932182, 5014385, 5096588, 5178791, 5260994, 5343197, 5425400, 5507603, 5589806, 5672009, 5754212, 5836415, 5918618, 6000822, 6083025, 6165228, 6247431, 6329634, 6411837, 6494040, 6576243, 6658446, 6740649, 6822852, 6905055, 6987258, 7069461, 7151664, 7233867, 7316070, 7398273, 7480476, 7562679, 7644882, 7727085, 7809288, 7891491, 7973695, 8055898, 8138101, 8220304, 8302507, 8384710, 8466913, 8549116, 8631319, 8713522, 8795725, 8877928, 8960131, 9042334, 9124537, 9206740, 9288943, 9371146, 9453349, 9535552, 9617755, 9699958, 9782161, 9864364, 9946568, 10028771, 10110974, 10193177, 10275380, 10357583, 10439786, 10521989, 10604192, 10686395, 10768598, 10850801, 10933004, 11015207, 11097410, 11179613, 11261816, 11344019, 11426222, 11508425, 11590628, 11672831, 11755034, 11837237, 11919441, 12001644, 12083847, 12166050, 12248253, 12330456, 12412659, 12494862, 12577065, 12659268, 12741471, 12823674, 12905877, 12988080, 13070283, 13152486, 13234689, 13316892, 13399095, 13481298, 13563501, 13645704, 13727907, 13810110, 13892314, 13974517, 14056720, 14138923, 14221126, 14303329, 14385532, 14467735, 14549938, 14632141, 14714344, 14796547, 14878750, 14960953, 15043156, 15125359, 15207562, 15289765, 15371968, 15454171, 15536374, 15618577, 15700780, 15782983, 15865187, 15947390, 16029593, 16111796, 16193999, 16276202, 16358405, 16440608, 16522811, 16605014, 16687217, 16769420, 16851623, 16933826, 17016029, 17098232, 17180435, 17262638, 17344841, 17427044, 17509247, 17591450, 17673653, 17755856, 17838060, 17920263, 18002466, 18084669, 18166872, 18249075, 18331278, 18413481, 18495684, 18577887, 18660090, 18742293, 18824496, 18906699, 18988902, 19071105, 19153308, 19235511, 19317714, 19399917, 19482120, 19564323, 19646526, 19728729, 19810933, 19893136, 19975339, 20057542, 20139745, 20221948, 20304151, 20386354, 20468557, 20550760, 20632963, 20715166, 20797369, 20879572, 20961775, 21043978, 21126181, 21208384, 21290587, 21372790, 21454993, 21537196, 21619399, 21701602, 21783806, 21866009, 21948212, 22030415, 22112618, 22194821, 22277024, 22359227, 22441430, 22523633, 22605836, 22688039, 22770242, 22852445, 22934648, 23016851, 23099054, 23181257, 23263460, 23345663, 23427866, 23510069, 23592272, 23674475, 23756678, 23838882, 23921085, 24003288, 24085491, 24167694, 24249897, 24332100, 24414303, 24496506, 24578709, 24660912, 24743115, 24825318, 24907521, 24989724, 25071927, 25154130, 25236333, 25318536, 25400739, 25482942, 25565145, 25647348, 25729551, 25811755, 25893958, 25976161, 26058364, 26140567, 26222770, 26304973, 26387176, 26469379, 26551582, 26633785, 26715988, 26798191, 26880394, 26962597, 27044800, 27127003, 27209206, 27291409, 27373612, 27455815, 27538018, 27620221, 27702424, 27784628, 27866831, 27949034, 28031237, 28113440, 28195643, 28277846, 28360049, 28442252, 28524455, 28606658, 28688861, 28771064, 28853267, 28935470, 29017673, 29099876, 29182079, 29264282, 29346485, 29428688, 29510891, 29593094, 29675297, 29757501, 29839704, 29921907, 30004110, 30086313, 30168516, 30250719, 30332922, 30415125, 30497328, 30579531, 30661734, 30743937, 30826140, 30908343, 30990546, 31072749, 31154952, 31237155, 31319358, 31401561, 31483764, 31565967, 31648170, 31730374, 31812577, 31894780, 31976983, 32059186, 32141389, 32223592, 32305795, 32387998, 32470201, 32552404, 32634607, 32716810, 32799013, 32881216, 32963419, 33045622, 33127825, 33210028, 33292231, 33374434, 33456637, 33538840, 33621043, 33703247, 33785450, 33867653, 33949856, 34032059, 34114262, 34196465, 34278668, 34360871, 34443074, 34525277, 34607480, 34689683, 34771886, 34854089, 34936292, 35018495, 35100698, 35182901, 35265104, 35347307, 35429510, 35511713, 35593916, 35676120, 35758323, 35840526, 35922729, 36004932, 36087135, 36169338, 36251541, 36333744, 36415947, 36498150, 36580353, 36662556, 36744759, 36826962, 36909165, 36991368, 37073571, 37155774, 37237977, 37320180, 37402383, 37484586, 37566789, 37648993, 37731196, 37813399, 37895602, 37977805, 38060008, 38142211, 38224414, 38306617, 38388820, 38471023, 38553226, 38635429, 38717632, 38799835, 38882038, 38964241, 39046444, 39128647, 39210850, 39293053, 39375256, 39457459, 39539662, 39621866, 39704069, 39786272, 39868475, 39950678, 40032881, 40115084, 40197287, 40279490, 40361693, 40443896, 40526099, 40608302, 40690505, 40772708, 40854911, 40937114, 41019317, 41101520, 41183723, 41265926, 41348129, 41430332, 41512535, 41594739, 41676942, 41759145, 41841348, 41923551, 42005754, 42087957, 42170160, 42252363, 42334566, 42416769, 42498972, 42581175, 42663378, 42745581, 42827784, 42909987, 42992190, 43074393, 43156596, 43238799, 43321002, 43403205, 43485408, 43567612, 43649815, 43732018, 43814221, 43896424, 43978627, 44060830, 44143033, 44225236, 44307439, 44389642, 44471845, 44554048, 44636251, 44718454, 44800657, 44882860, 44965063, 45047266, 45129469, 45211672, 45293875, 45376078, 45458281, 45540484, 45622688, 45704891, 45787094, 45869297, 45951500, 46033703, 46115906, 46198109, 46280312, 46362515, 46444718, 46526921, 46609124, 46691327, 46773530, 46855733, 46937936, 47020139, 47102342, 47184545, 47266748, 47348951, 47431154, 47513357, 47595561, 47677764, 47759967, 47842170, 47924373, 48006576, 48088779, 48170982, 48253185, 48335388, 48417591, 48499794, 48581997, 48664200, 48746403, 48828606, 48910809, 48993012, 49075215, 49157418, 49239621, 49321824, 49404027, 49486230, 49568434, 49650637, 49732840, 49815043, 49897246, 49979449, 50061652, 50143855, 50226058, 50308261, 50390464, 50472667, 50554870, 50637073, 50719276, 50801479, 50883682, 50965885, 51048088, 51130291, 51212494, 51294697, 51376900, 51459103, 51541307, 51623510, 51705713, 51787916, 51870119, 51952322, 52034525, 52116728, 52198931, 52281134, 52363337, 52445540, 52527743, 52609946, 52692149, 52774352, 52856555, 52938758, 53020961, 53103164, 53185367, 53267570, 53349773, 53431976, 53514180, 53596383, 53678586, 53760789, 53842992, 53925195, 54007398, 54089601, 54171804, 54254007, 54336210, 54418413, 54500616, 54582819, 54665022, 54747225, 54829428, 54911631, 54993834, 55076037, 55158240, 55240443, 55322646, 55404849, 55487053, 55569256, 55651459, 55733662, 55815865, 55898068, 55980271, 56062474, 56144677, 56226880, 56309083, 56391286, 56473489, 56555692, 56637895, 56720098, 56802301, 56884504, 56966707, 57048910, 57131113, 57213316, 57295519, 57377722, 57459926, 57542129, 57624332, 57706535, 57788738, 57870941, 57953144, 58035347, 58117550, 58199753, 58281956, 58364159, 58446362, 58528565, 58610768, 58692971, 58775174, 58857377, 58939580, 59021783, 59103986, 59186189, 59268392, 59350595, 59432799, 59515002, 59597205, 59679408, 59761611, 59843814, 59926017, 60008220, 60090423, 60172626, 60254829, 60337032, 60419235, 60501438, 60583641, 60665844, 60748047, 60830250, 60912453, 60994656, 61076859, 61159062, 61241265, 61323468, 61405672, 61487875, 61570078, 61652281, 61734484, 61816687, 61898890, 61981093, 62063296, 62145499, 62227702, 62309905, 62392108, 62474311, 62556514, 62638717, 62720920, 62803123, 62885326, 62967529, 63049732, 63131935, 63214138, 63296341, 63378545, 63460748, 63542951, 63625154, 63707357, 63789560, 63871763, 63953966, 64036169, 64118372, 64200575, 64282778, 64364981, 64447184, 64529387, 64611590, 64693793, 64775996, 64858199, 64940402, 65022605, 65104808, 65187011, 65269214, 65351418, 65433621, 65515824, 65598027, 65680230, 65762433, 65844636, 65926839, 66009042, 66091245, 66173448, 66255651, 66337854, 66420057, 66502260, 66584463]
    float[] omni:sensor:Core:emitterState:s001:focalDistM = [0, 0, 0, 0, 0, 0, 0, 0, 0, 0, 0, 0, 0, 0, 0, 0, 0, 0, 0, 0, 0, 0, 0, 0, 0, 0, 0, 0, 0, 0, 0, 0, 0, 0, 0, 0, 0, 0, 0, 0, 0, 0, 0, 0, 0, 0, 0, 0, 0, 0, 0, 0, 0, 0, 0, 0, 0, 0, 0, 0, 0, 0, 0, 0, 0, 0, 0, 0, 0, 0, 0, 0, 0, 0, 0, 0, 0, 0, 0, 0, 0, 0, 0, 0, 0, 0, 0, 0, 0, 0, 0, 0, 0, 0, 0, 0, 0, 0, 0, 0, 0, 0, 0, 0, 0, 0, 0, 0, 0, 0, 0, 0, 0, 0, 0, 0, 0, 0, 0, 0, 0, 0, 0, 0, 0, 0, 0, 0, 0, 0, 0, 0, 0, 0, 0, 0, 0, 0, 0, 0, 0, 0, 0, 0, 0, 0, 0, 0, 0, 0, 0, 0, 0, 0, 0, 0, 0, 0, 0, 0, 0, 0, 0, 0, 0, 0, 0, 0, 0, 0, 0, 0, 0, 0, 0, 0, 0, 0, 0, 0, 0, 0, 0, 0, 0, 0, 0, 0, 0, 0, 0, 0, 0, 0, 0, 0, 0, 0, 0, 0, 0, 0, 0, 0, 0, 0, 0, 0, 0, 0, 0, 0, 0, 0, 0, 0, 0, 0, 0, 0, 0, 0, 0, 0, 0, 0, 0, 0, 0, 0, 0, 0, 0, 0, 0, 0, 0, 0, 0, 0, 0, 0, 0, 0, 0, 0, 0, 0, 0, 0, 0, 0, 0, 0, 0, 0, 0, 0, 0, 0, 0, 0, 0, 0, 0, 0, 0, 0, 0, 0, 0, 0, 0, 0, 0, 0, 0, 0, 0, 0, 0, 0, 0, 0, 0, 0, 0, 0, 0, 0, 0, 0, 0, 0, 0, 0, 0, 0, 0, 0, 0, 0, 0, 0, 0, 0, 0, 0, 0, 0, 0, 0, 0, 0, 0, 0, 0, 0, 0, 0, 0, 0, 0, 0, 0, 0, 0, 0, 0, 0, 0, 0, 0, 0, 0, 0, 0, 0, 0, 0, 0, 0, 0, 0, 0, 0, 0, 0, 0, 0, 0, 0, 0, 0, 0, 0, 0, 0, 0, 0, 0, 0, 0, 0, 0, 0, 0, 0, 0, 0, 0, 0, 0, 0, 0, 0, 0, 0, 0, 0, 0, 0, 0, 0, 0, 0, 0, 0, 0, 0, 0, 0, 0, 0, 0, 0, 0, 0, 0, 0, 0, 0, 0, 0, 0, 0, 0, 0, 0, 0, 0, 0, 0, 0, 0, 0, 0, 0, 0, 0, 0, 0, 0, 0, 0, 0, 0, 0, 0, 0, 0, 0, 0, 0, 0, 0, 0, 0, 0, 0, 0, 0, 0, 0, 0, 0, 0, 0, 0, 0, 0, 0, 0, 0, 0, 0, 0, 0, 0, 0, 0, 0, 0, 0, 0, 0, 0, 0, 0, 0, 0, 0, 0, 0, 0, 0, 0, 0, 0, 0, 0, 0, 0, 0, 0, 0, 0, 0, 0, 0, 0, 0, 0, 0, 0, 0, 0, 0, 0, 0, 0, 0, 0, 0, 0, 0, 0, 0, 0, 0, 0, 0, 0, 0, 0, 0, 0, 0, 0, 0, 0, 0, 0, 0, 0, 0, 0, 0, 0, 0, 0, 0, 0, 0, 0, 0, 0, 0, 0, 0, 0, 0, 0, 0, 0, 0, 0, 0, 0, 0, 0, 0, 0, 0, 0, 0, 0, 0, 0, 0, 0, 0, 0, 0, 0, 0, 0, 0, 0, 0, 0, 0, 0, 0, 0, 0, 0, 0, 0, 0, 0, 0, 0, 0, 0, 0, 0, 0, 0, 0, 0, 0, 0, 0, 0, 0, 0, 0, 0, 0, 0, 0, 0, 0, 0, 0, 0, 0, 0, 0, 0, 0, 0, 0, 0, 0, 0, 0, 0, 0, 0, 0, 0, 0, 0, 0, 0, 0, 0, 0, 0, 0, 0, 0, 0, 0, 0, 0, 0, 0, 0, 0, 0, 0, 0, 0, 0, 0, 0, 0, 0, 0, 0, 0, 0, 0, 0, 0, 0, 0, 0, 0, 0, 0, 0, 0, 0, 0, 0, 0, 0, 0, 0, 0, 0, 0, 0, 0, 0, 0, 0, 0, 0, 0, 0, 0, 0, 0, 0, 0, 0, 0, 0, 0, 0, 0, 0, 0, 0, 0, 0, 0, 0, 0, 0, 0, 0, 0, 0, 0, 0, 0, 0, 0, 0, 0, 0, 0, 0, 0, 0, 0, 0, 0, 0, 0, 0, 0, 0, 0, 0, 0, 0, 0, 0, 0, 0, 0, 0, 0, 0, 0, 0, 0, 0, 0, 0, 0, 0, 0, 0, 0, 0, 0, 0, 0, 0, 0, 0, 0, 0, 0, 0, 0, 0, 0, 0, 0, 0, 0, 0, 0, 0, 0, 0, 0, 0, 0, 0, 0, 0, 0, 0, 0, 0, 0, 0, 0, 0, 0, 0, 0, 0, 0, 0, 0, 0, 0, 0, 0, 0, 0, 0, 0, 0, 0, 0, 0, 0, 0, 0]
    float[] omni:sensor:Core:emitterState:s001:focalSlope = [0, 0, 0, 0, 0, 0, 0, 0, 0, 0, 0, 0, 0, 0, 0, 0, 0, 0, 0, 0, 0, 0, 0, 0, 0, 0, 0, 0, 0, 0, 0, 0, 0, 0, 0, 0, 0, 0, 0, 0, 0, 0, 0, 0, 0, 0, 0, 0, 0, 0, 0, 0, 0, 0, 0, 0, 0, 0, 0, 0, 0, 0, 0, 0, 0, 0, 0, 0, 0, 0, 0, 0, 0, 0, 0, 0, 0, 0, 0, 0, 0, 0, 0, 0, 0, 0, 0, 0, 0, 0, 0, 0, 0, 0, 0, 0, 0, 0, 0, 0, 0, 0, 0, 0, 0, 0, 0, 0, 0, 0, 0, 0, 0, 0, 0, 0, 0, 0, 0, 0, 0, 0, 0, 0, 0, 0, 0, 0, 0, 0, 0, 0, 0, 0, 0, 0, 0, 0, 0, 0, 0, 0, 0, 0, 0, 0, 0, 0, 0, 0, 0, 0, 0, 0, 0, 0, 0, 0, 0, 0, 0, 0, 0, 0, 0, 0, 0, 0, 0, 0, 0, 0, 0, 0, 0, 0, 0, 0, 0, 0, 0, 0, 0, 0, 0, 0, 0, 0, 0, 0, 0, 0, 0, 0, 0, 0, 0, 0, 0, 0, 0, 0, 0, 0, 0, 0, 0, 0, 0, 0, 0, 0, 0, 0, 0, 0, 0, 0, 0, 0, 0, 0, 0, 0, 0, 0, 0, 0, 0, 0, 0, 0, 0, 0, 0, 0, 0, 0, 0, 0, 0, 0, 0, 0, 0, 0, 0, 0, 0, 0, 0, 0, 0, 0, 0, 0, 0, 0, 0, 0, 0, 0, 0, 0, 0, 0, 0, 0, 0, 0, 0, 0, 0, 0, 0, 0, 0, 0, 0, 0, 0, 0, 0, 0, 0, 0, 0, 0, 0, 0, 0, 0, 0, 0, 0, 0, 0, 0, 0, 0, 0, 0, 0, 0, 0, 0, 0, 0, 0, 0, 0, 0, 0, 0, 0, 0, 0, 0, 0, 0, 0, 0, 0, 0, 0, 0, 0, 0, 0, 0, 0, 0, 0, 0, 0, 0, 0, 0, 0, 0, 0, 0, 0, 0, 0, 0, 0, 0, 0, 0, 0, 0, 0, 0, 0, 0, 0, 0, 0, 0, 0, 0, 0, 0, 0, 0, 0, 0, 0, 0, 0, 0, 0, 0, 0, 0, 0, 0, 0, 0, 0, 0, 0, 0, 0, 0, 0, 0, 0, 0, 0, 0, 0, 0, 0, 0, 0, 0, 0, 0, 0, 0, 0, 0, 0, 0, 0, 0, 0, 0, 0, 0, 0, 0, 0, 0, 0, 0, 0, 0, 0, 0, 0, 0, 0, 0, 0, 0, 0, 0, 0, 0, 0, 0, 0, 0, 0, 0, 0, 0, 0, 0, 0, 0, 0, 0, 0, 0, 0, 0, 0, 0, 0, 0, 0, 0, 0, 0, 0, 0, 0, 0, 0, 0, 0, 0, 0, 0, 0, 0, 0, 0, 0, 0, 0, 0, 0, 0, 0, 0, 0, 0, 0, 0, 0, 0, 0, 0, 0, 0, 0, 0, 0, 0, 0, 0, 0, 0, 0, 0, 0, 0, 0, 0, 0, 0, 0, 0, 0, 0, 0, 0, 0, 0, 0, 0, 0, 0, 0, 0, 0, 0, 0, 0, 0, 0, 0, 0, 0, 0, 0, 0, 0, 0, 0, 0, 0, 0, 0, 0, 0, 0, 0, 0, 0, 0, 0, 0, 0, 0, 0, 0, 0, 0, 0, 0, 0, 0, 0, 0, 0, 0, 0, 0, 0, 0, 0, 0, 0, 0, 0, 0, 0, 0, 0, 0, 0, 0, 0, 0, 0, 0, 0, 0, 0, 0, 0, 0, 0, 0, 0, 0, 0, 0, 0, 0, 0, 0, 0, 0, 0, 0, 0, 0, 0, 0, 0, 0, 0, 0, 0, 0, 0, 0, 0, 0, 0, 0, 0, 0, 0, 0, 0, 0, 0, 0, 0, 0, 0, 0, 0, 0, 0, 0, 0, 0, 0, 0, 0, 0, 0, 0, 0, 0, 0, 0, 0, 0, 0, 0, 0, 0, 0, 0, 0, 0, 0, 0, 0, 0, 0, 0, 0, 0, 0, 0, 0, 0, 0, 0, 0, 0, 0, 0, 0, 0, 0, 0, 0, 0, 0, 0, 0, 0, 0, 0, 0, 0, 0, 0, 0, 0, 0, 0, 0, 0, 0, 0, 0, 0, 0, 0, 0, 0, 0, 0, 0, 0, 0, 0, 0, 0, 0, 0, 0, 0, 0, 0, 0, 0, 0, 0, 0, 0, 0, 0, 0, 0, 0, 0, 0, 0, 0, 0, 0, 0, 0, 0, 0, 0, 0, 0, 0, 0, 0, 0, 0, 0, 0, 0, 0, 0, 0, 0, 0, 0, 0, 0, 0, 0, 0, 0, 0, 0, 0, 0, 0, 0, 0, 0, 0, 0, 0, 0, 0, 0, 0, 0, 0, 0, 0, 0, 0, 0, 0, 0, 0, 0, 0, 0, 0, 0, 0, 0, 0, 0, 0, 0, 0, 0, 0, 0, 0, 0, 0, 0, 0, 0, 0, 0, 0]
    float[] omni:sensor:Core:emitterState:s001:horOffsetM = [0, 0, 0, 0, 0, 0, 0, 0, 0, 0, 0, 0, 0, 0, 0, 0, 0, 0, 0, 0, 0, 0, 0, 0, 0, 0, 0, 0, 0, 0, 0, 0, 0, 0, 0, 0, 0, 0, 0, 0, 0, 0, 0, 0, 0, 0, 0, 0, 0, 0, 0, 0, 0, 0, 0, 0, 0, 0, 0, 0, 0, 0, 0, 0, 0, 0, 0, 0, 0, 0, 0, 0, 0, 0, 0, 0, 0, 0, 0, 0, 0, 0, 0, 0, 0, 0, 0, 0, 0, 0, 0, 0, 0, 0, 0, 0, 0, 0, 0, 0, 0, 0, 0, 0, 0, 0, 0, 0, 0, 0, 0, 0, 0, 0, 0, 0, 0, 0, 0, 0, 0, 0, 0, 0, 0, 0, 0, 0, 0, 0, 0, 0, 0, 0, 0, 0, 0, 0, 0, 0, 0, 0, 0, 0, 0, 0, 0, 0, 0, 0, 0, 0, 0, 0, 0, 0, 0, 0, 0, 0, 0, 0, 0, 0, 0, 0, 0, 0, 0, 0, 0, 0, 0, 0, 0, 0, 0, 0, 0, 0, 0, 0, 0, 0, 0, 0, 0, 0, 0, 0, 0, 0, 0, 0, 0, 0, 0, 0, 0, 0, 0, 0, 0, 0, 0, 0, 0, 0, 0, 0, 0, 0, 0, 0, 0, 0, 0, 0, 0, 0, 0, 0, 0, 0, 0, 0, 0, 0, 0, 0, 0, 0, 0, 0, 0, 0, 0, 0, 0, 0, 0, 0, 0, 0, 0, 0, 0, 0, 0, 0, 0, 0, 0, 0, 0, 0, 0, 0, 0, 0, 0, 0, 0, 0, 0, 0, 0, 0, 0, 0, 0, 0, 0, 0, 0, 0, 0, 0, 0, 0, 0, 0, 0, 0, 0, 0, 0, 0, 0, 0, 0, 0, 0, 0, 0, 0, 0, 0, 0, 0, 0, 0, 0, 0, 0, 0, 0, 0, 0, 0, 0, 0, 0, 0, 0, 0, 0, 0, 0, 0, 0, 0, 0, 0, 0, 0, 0, 0, 0, 0, 0, 0, 0, 0, 0, 0, 0, 0, 0, 0, 0, 0, 0, 0, 0, 0, 0, 0, 0, 0, 0, 0, 0, 0, 0, 0, 0, 0, 0, 0, 0, 0, 0, 0, 0, 0, 0, 0, 0, 0, 0, 0, 0, 0, 0, 0, 0, 0, 0, 0, 0, 0, 0, 0, 0, 0, 0, 0, 0, 0, 0, 0, 0, 0, 0, 0, 0, 0, 0, 0, 0, 0, 0, 0, 0, 0, 0, 0, 0, 0, 0, 0, 0, 0, 0, 0, 0, 0, 0, 0, 0, 0, 0, 0, 0, 0, 0, 0, 0, 0, 0, 0, 0, 0, 0, 0, 0, 0, 0, 0, 0, 0, 0, 0, 0, 0, 0, 0, 0, 0, 0, 0, 0, 0, 0, 0, 0, 0, 0, 0, 0, 0, 0, 0, 0, 0, 0, 0, 0, 0, 0, 0, 0, 0, 0, 0, 0, 0, 0, 0, 0, 0, 0, 0, 0, 0, 0, 0, 0, 0, 0, 0, 0, 0, 0, 0, 0, 0, 0, 0, 0, 0, 0, 0, 0, 0, 0, 0, 0, 0, 0, 0, 0, 0, 0, 0, 0, 0, 0, 0, 0, 0, 0, 0, 0, 0, 0, 0, 0, 0, 0, 0, 0, 0, 0, 0, 0, 0, 0, 0, 0, 0, 0, 0, 0, 0, 0, 0, 0, 0, 0, 0, 0, 0, 0, 0, 0, 0, 0, 0, 0, 0, 0, 0, 0, 0, 0, 0, 0, 0, 0, 0, 0, 0, 0, 0, 0, 0, 0, 0, 0, 0, 0, 0, 0, 0, 0, 0, 0, 0, 0, 0, 0, 0, 0, 0, 0, 0, 0, 0, 0, 0, 0, 0, 0, 0, 0, 0, 0, 0, 0, 0, 0, 0, 0, 0, 0, 0, 0, 0, 0, 0, 0, 0, 0, 0, 0, 0, 0, 0, 0, 0, 0, 0, 0, 0, 0, 0, 0, 0, 0, 0, 0, 0, 0, 0, 0, 0, 0, 0, 0, 0, 0, 0, 0, 0, 0, 0, 0, 0, 0, 0, 0, 0, 0, 0, 0, 0, 0, 0, 0, 0, 0, 0, 0, 0, 0, 0, 0, 0, 0, 0, 0, 0, 0, 0, 0, 0, 0, 0, 0, 0, 0, 0, 0, 0, 0, 0, 0, 0, 0, 0, 0, 0, 0, 0, 0, 0, 0, 0, 0, 0, 0, 0, 0, 0, 0, 0, 0, 0, 0, 0, 0, 0, 0, 0, 0, 0, 0, 0, 0, 0, 0, 0, 0, 0, 0, 0, 0, 0, 0, 0, 0, 0, 0, 0, 0, 0, 0, 0, 0, 0, 0, 0, 0, 0, 0, 0, 0, 0, 0, 0, 0, 0, 0, 0, 0, 0, 0, 0, 0, 0, 0, 0, 0, 0, 0, 0, 0, 0, 0, 0, 0, 0, 0, 0, 0, 0, 0, 0, 0, 0, 0, 0, 0, 0, 0, 0, 0, 0, 0, 0, 0, 0, 0, 0, 0, 0, 0, 0, 0]
    float[] omni:sensor:Core:emitterState:s001:reportRateDiv = [0, 0, 0, 0, 0, 0, 0, 0, 0, 0, 0, 0, 0, 0, 0, 0, 0, 0, 0, 0, 0, 0, 0, 0, 0, 0, 0, 0, 0, 0, 0, 0, 0, 0, 0, 0, 0, 0, 0, 0, 0, 0, 0, 0, 0, 0, 0, 0, 0, 0, 0, 0, 0, 0, 0, 0, 0, 0, 0, 0, 0, 0, 0, 0, 0, 0, 0, 0, 0, 0, 0, 0, 0, 0, 0, 0, 0, 0, 0, 0, 0, 0, 0, 0, 0, 0, 0, 0, 0, 0, 0, 0, 0, 0, 0, 0, 0, 0, 0, 0, 0, 0, 0, 0, 0, 0, 0, 0, 0, 0, 0, 0, 0, 0, 0, 0, 0, 0, 0, 0, 0, 0, 0, 0, 0, 0, 0, 0, 0, 0, 0, 0, 0, 0, 0, 0, 0, 0, 0, 0, 0, 0, 0, 0, 0, 0, 0, 0, 0, 0, 0, 0, 0, 0, 0, 0, 0, 0, 0, 0, 0, 0, 0, 0, 0, 0, 0, 0, 0, 0, 0, 0, 0, 0, 0, 0, 0, 0, 0, 0, 0, 0, 0, 0, 0, 0, 0, 0, 0, 0, 0, 0, 0, 0, 0, 0, 0, 0, 0, 0, 0, 0, 0, 0, 0, 0, 0, 0, 0, 0, 0, 0, 0, 0, 0, 0, 0, 0, 0, 0, 0, 0, 0, 0, 0, 0, 0, 0, 0, 0, 0, 0, 0, 0, 0, 0, 0, 0, 0, 0, 0, 0, 0, 0, 0, 0, 0, 0, 0, 0, 0, 0, 0, 0, 0, 0, 0, 0, 0, 0, 0, 0, 0, 0, 0, 0, 0, 0, 0, 0, 0, 0, 0, 0, 0, 0, 0, 0, 0, 0, 0, 0, 0, 0, 0, 0, 0, 0, 0, 0, 0, 0, 0, 0, 0, 0, 0, 0, 0, 0, 0, 0, 0, 0, 0, 0, 0, 0, 0, 0, 0, 0, 0, 0, 0, 0, 0, 0, 0, 0, 0, 0, 0, 0, 0, 0, 0, 0, 0, 0, 0, 0, 0, 0, 0, 0, 0, 0, 0, 0, 0, 0, 0, 0, 0, 0, 0, 0, 0, 0, 0, 0, 0, 0, 0, 0, 0, 0, 0, 0, 0, 0, 0, 0, 0, 0, 0, 0, 0, 0, 0, 0, 0, 0, 0, 0, 0, 0, 0, 0, 0, 0, 0, 0, 0, 0, 0, 0, 0, 0, 0, 0, 0, 0, 0, 0, 0, 0, 0, 0, 0, 0, 0, 0, 0, 0, 0, 0, 0, 0, 0, 0, 0, 0, 0, 0, 0, 0, 0, 0, 0, 0, 0, 0, 0, 0, 0, 0, 0, 0, 0, 0, 0, 0, 0, 0, 0, 0, 0, 0, 0, 0, 0, 0, 0, 0, 0, 0, 0, 0, 0, 0, 0, 0, 0, 0, 0, 0, 0, 0, 0, 0, 0, 0, 0, 0, 0, 0, 0, 0, 0, 0, 0, 0, 0, 0, 0, 0, 0, 0, 0, 0, 0, 0, 0, 0, 0, 0, 0, 0, 0, 0, 0, 0, 0, 0, 0, 0, 0, 0, 0, 0, 0, 0, 0, 0, 0, 0, 0, 0, 0, 0, 0, 0, 0, 0, 0, 0, 0, 0, 0, 0, 0, 0, 0, 0, 0, 0, 0, 0, 0, 0, 0, 0, 0, 0, 0, 0, 0, 0, 0, 0, 0, 0, 0, 0, 0, 0, 0, 0, 0, 0, 0, 0, 0, 0, 0, 0, 0, 0, 0, 0, 0, 0, 0, 0, 0, 0, 0, 0, 0, 0, 0, 0, 0, 0, 0, 0, 0, 0, 0, 0, 0, 0, 0, 0, 0, 0, 0, 0, 0, 0, 0, 0, 0, 0, 0, 0, 0, 0, 0, 0, 0, 0, 0, 0, 0, 0, 0, 0, 0, 0, 0, 0, 0, 0, 0, 0, 0, 0, 0, 0, 0, 0, 0, 0, 0, 0, 0, 0, 0, 0, 0, 0, 0, 0, 0, 0, 0, 0, 0, 0, 0, 0, 0, 0, 0, 0, 0, 0, 0, 0, 0, 0, 0, 0, 0, 0, 0, 0, 0, 0, 0, 0, 0, 0, 0, 0, 0, 0, 0, 0, 0, 0, 0, 0, 0, 0, 0, 0, 0, 0, 0, 0, 0, 0, 0, 0, 0, 0, 0, 0, 0, 0, 0, 0, 0, 0, 0, 0, 0, 0, 0, 0, 0, 0, 0, 0, 0, 0, 0, 0, 0, 0, 0, 0, 0, 0, 0, 0, 0, 0, 0, 0, 0, 0, 0, 0, 0, 0, 0, 0, 0, 0, 0, 0, 0, 0, 0, 0, 0, 0, 0, 0, 0, 0, 0, 0, 0, 0, 0, 0, 0, 0, 0, 0, 0, 0, 0, 0, 0, 0, 0, 0, 0, 0, 0, 0, 0, 0, 0, 0, 0, 0, 0, 0, 0, 0, 0, 0, 0, 0, 0, 0, 0, 0, 0, 0, 0, 0, 0, 0, 0, 0, 0, 0, 0, 0, 0, 0, 0, 0, 0, 0, 0, 0, 0, 0, 0, 0, 0]
    float[] omni:sensor:Core:emitterState:s001:vertOffsetM = [0, 0, 0, 0, 0, 0, 0, 0, 0, 0, 0, 0, 0, 0, 0, 0, 0, 0, 0, 0, 0, 0, 0, 0, 0, 0, 0, 0, 0, 0, 0, 0, 0, 0, 0, 0, 0, 0, 0, 0, 0, 0, 0, 0, 0, 0, 0, 0, 0, 0, 0, 0, 0, 0, 0, 0, 0, 0, 0, 0, 0, 0, 0, 0, 0, 0, 0, 0, 0, 0, 0, 0, 0, 0, 0, 0, 0, 0, 0, 0, 0, 0, 0, 0, 0, 0, 0, 0, 0, 0, 0, 0, 0, 0, 0, 0, 0, 0, 0, 0, 0, 0, 0, 0, 0, 0, 0, 0, 0, 0, 0, 0, 0, 0, 0, 0, 0, 0, 0, 0, 0, 0, 0, 0, 0, 0, 0, 0, 0, 0, 0, 0, 0, 0, 0, 0, 0, 0, 0, 0, 0, 0, 0, 0, 0, 0, 0, 0, 0, 0, 0, 0, 0, 0, 0, 0, 0, 0, 0, 0, 0, 0, 0, 0, 0, 0, 0, 0, 0, 0, 0, 0, 0, 0, 0, 0, 0, 0, 0, 0, 0, 0, 0, 0, 0, 0, 0, 0, 0, 0, 0, 0, 0, 0, 0, 0, 0, 0, 0, 0, 0, 0, 0, 0, 0, 0, 0, 0, 0, 0, 0, 0, 0, 0, 0, 0, 0, 0, 0, 0, 0, 0, 0, 0, 0, 0, 0, 0, 0, 0, 0, 0, 0, 0, 0, 0, 0, 0, 0, 0, 0, 0, 0, 0, 0, 0, 0, 0, 0, 0, 0, 0, 0, 0, 0, 0, 0, 0, 0, 0, 0, 0, 0, 0, 0, 0, 0, 0, 0, 0, 0, 0, 0, 0, 0, 0, 0, 0, 0, 0, 0, 0, 0, 0, 0, 0, 0, 0, 0, 0, 0, 0, 0, 0, 0, 0, 0, 0, 0, 0, 0, 0, 0, 0, 0, 0, 0, 0, 0, 0, 0, 0, 0, 0, 0, 0, 0, 0, 0, 0, 0, 0, 0, 0, 0, 0, 0, 0, 0, 0, 0, 0, 0, 0, 0, 0, 0, 0, 0, 0, 0, 0, 0, 0, 0, 0, 0, 0, 0, 0, 0, 0, 0, 0, 0, 0, 0, 0, 0, 0, 0, 0, 0, 0, 0, 0, 0, 0, 0, 0, 0, 0, 0, 0, 0, 0, 0, 0, 0, 0, 0, 0, 0, 0, 0, 0, 0, 0, 0, 0, 0, 0, 0, 0, 0, 0, 0, 0, 0, 0, 0, 0, 0, 0, 0, 0, 0, 0, 0, 0, 0, 0, 0, 0, 0, 0, 0, 0, 0, 0, 0, 0, 0, 0, 0, 0, 0, 0, 0, 0, 0, 0, 0, 0, 0, 0, 0, 0, 0, 0, 0, 0, 0, 0, 0, 0, 0, 0, 0, 0, 0, 0, 0, 0, 0, 0, 0, 0, 0, 0, 0, 0, 0, 0, 0, 0, 0, 0, 0, 0, 0, 0, 0, 0, 0, 0, 0, 0, 0, 0, 0, 0, 0, 0, 0, 0, 0, 0, 0, 0, 0, 0, 0, 0, 0, 0, 0, 0, 0, 0, 0, 0, 0, 0, 0, 0, 0, 0, 0, 0, 0, 0, 0, 0, 0, 0, 0, 0, 0, 0, 0, 0, 0, 0, 0, 0, 0, 0, 0, 0, 0, 0, 0, 0, 0, 0, 0, 0, 0, 0, 0, 0, 0, 0, 0, 0, 0, 0, 0, 0, 0, 0, 0, 0, 0, 0, 0, 0, 0, 0, 0, 0, 0, 0, 0, 0, 0, 0, 0, 0, 0, 0, 0, 0, 0, 0, 0, 0, 0, 0, 0, 0, 0, 0, 0, 0, 0, 0, 0, 0, 0, 0, 0, 0, 0, 0, 0, 0, 0, 0, 0, 0, 0, 0, 0, 0, 0, 0, 0, 0, 0, 0, 0, 0, 0, 0, 0, 0, 0, 0, 0, 0, 0, 0, 0, 0, 0, 0, 0, 0, 0, 0, 0, 0, 0, 0, 0, 0, 0, 0, 0, 0, 0, 0, 0, 0, 0, 0, 0, 0, 0, 0, 0, 0, 0, 0, 0, 0, 0, 0, 0, 0, 0, 0, 0, 0, 0, 0, 0, 0, 0, 0, 0, 0, 0, 0, 0, 0, 0, 0, 0, 0, 0, 0, 0, 0, 0, 0, 0, 0, 0, 0, 0, 0, 0, 0, 0, 0, 0, 0, 0, 0, 0, 0, 0, 0, 0, 0, 0, 0, 0, 0, 0, 0, 0, 0, 0, 0, 0, 0, 0, 0, 0, 0, 0, 0, 0, 0, 0, 0, 0, 0, 0, 0, 0, 0, 0, 0, 0, 0, 0, 0, 0, 0, 0, 0, 0, 0, 0, 0, 0, 0, 0, 0, 0, 0, 0, 0, 0, 0, 0, 0, 0, 0, 0, 0, 0, 0, 0, 0, 0, 0, 0, 0, 0, 0, 0, 0, 0, 0, 0, 0, 0, 0, 0, 0, 0, 0, 0, 0, 0, 0, 0, 0, 0, 0, 0, 0, 0, 0, 0, 0, 0, 0, 0, 0, 0, 0, 0, 0, 0]
    float omni:sensor:Core:farRangeM = 25
    token omni:sensor:Core:intensityMappingType = "LINEAR"
    token omni:sensor:Core:intensityProcessing = "NORMALIZATION"
    uint omni:sensor:Core:maxReturns = 1
    float omni:sensor:Core:minReflectance = 0.05
    float omni:sensor:Core:nearRangeM = 0.05
    uint omni:sensor:Core:numberOfChannels = 811
    uint omni:sensor:Core:numberOfEmitters = 811
    uint omni:sensor:Core:numLines = 1
    uint[] omni:sensor:Core:numRaysPerLine = [811]
    uint omni:sensor:Core:pulseTimeNs = 2
    float omni:sensor:Core:rangeAccuracyM = 0.02
    float omni:sensor:Core:rangeOffsetM = 0.05
    float omni:sensor:Core:rangeResolutionM = 0.001
    token omni:sensor:Core:rayType = "IDEALIZED"
    uint omni:sensor:Core:reportRateBaseHz = 15
    token omni:sensor:Core:rotationDirection = "CW"
    uint omni:sensor:Core:scanRateBaseHz = 15
    token omni:sensor:Core:scanType = "SOLID_STATE"
    string omni:sensor:modelName = "SICK_TiM781"
}

